<svg width="180" height="180" viewBox="0 0 180 180" fill="none" xmlns="http://www.w3.org/2000/svg">
<rect width="180" height="180" rx="4" fill="#3C040D"/>
<path d="M44.8749 100.331C44.1237 100.331 43.7481 99.8533 43.7481 98.8972C43.7822 96.6095 44.2944 93.9461 45.2846 90.9413C46.6505 86.7756 48.4602 82.4391 50.7479 78.0002L50.8162 77.7953V77.7612C50.782 77.7612 50.7138 77.8295 50.6455 77.9319C48.665 81.0733 46.1383 84.1464 43.0652 87.117C39.7189 90.3608 36.2702 92.7169 32.6508 94.2534C30.2265 95.2778 27.8705 95.79 25.5486 95.79C24.0803 95.79 22.5779 95.5509 21.1097 95.1071C18.139 94.0827 16.0903 91.9657 14.9293 88.7901C14.2123 86.8439 13.8708 84.6927 13.8708 82.3708C13.8708 78.3075 14.7586 74.1759 16.5683 69.9419C17.5585 67.6541 18.6512 65.5371 19.9146 63.5908C23.9437 57.3422 29.0314 52.2887 35.2117 48.3961C41.1189 44.6742 46.5139 42.7962 51.3967 42.7621C53.6503 42.7621 55.8014 43.1377 57.8502 43.8547C59.3526 44.4694 60.5818 45.4254 61.5379 46.7571C62.4939 48.0888 63.0061 49.5229 63.0403 51.0936C63.0403 51.674 62.9378 52.3911 62.6988 53.2106C62.1183 55.1227 61.333 56.6251 60.3086 57.7861C59.6257 58.5373 58.977 58.8787 58.3623 58.8787C58.1575 58.8787 57.9184 58.8104 57.6794 58.6739C57.4404 58.5373 57.2355 58.3324 57.099 58.0934C56.9624 57.8544 56.8941 57.6495 56.8941 57.4105V57.2398C56.9965 56.5568 57.3038 55.8739 57.7477 55.1569C57.816 54.9862 58.0209 54.9179 58.3282 54.9179H58.5331C58.8062 54.9179 59.0111 54.8154 59.1477 54.5423C59.933 53.2106 60.3086 51.9814 60.3086 50.8546C60.3086 50.0351 60.0696 49.1814 59.5916 48.3619C59.1477 47.6449 58.5672 47.0303 57.8843 46.5181C56.5185 45.5962 54.4015 45.1181 51.4991 45.1181C51.1235 45.1181 50.3382 45.1523 49.1431 45.2206C47.948 45.2888 46.5822 45.562 45.1139 46.0742C42.1774 47.1327 39.3092 48.5327 36.4751 50.2741C30.4997 53.9959 25.5827 58.708 21.6901 64.4444C17.661 70.4199 15.6464 76.4636 15.6464 82.5757C15.6464 84.5561 15.9196 86.3317 16.3976 87.9365C17.2512 90.7023 19.0951 92.6144 21.8609 93.6729C23.2608 94.1851 24.6949 94.4241 26.129 94.4241C26.6754 94.4241 27.5631 94.3217 28.7924 94.151C30.0558 93.9803 31.6265 93.4339 33.5727 92.4437C37.1922 90.6681 40.7091 87.8682 44.192 84.1122C47.1626 80.9367 49.6211 77.6587 51.5674 74.3125C52.2503 73.3564 52.9332 72.1955 53.6161 70.8979C50.4747 71.1369 48.2553 71.3418 46.9236 71.4784C45.1139 71.7174 43.1335 72.093 41.0506 72.6052L40.7091 72.6393C40.436 72.6393 40.2311 72.5711 40.0604 72.4686C39.8897 72.332 39.7872 72.1613 39.7872 71.9906C39.7872 70.9662 41.4945 70.215 44.8749 69.6687C47.8114 69.1907 50.782 68.9516 53.821 68.9516H54.06C54.3673 68.9516 54.6405 68.8151 54.7771 68.5078C55.7331 66.8005 56.5868 65.9468 57.2697 65.9468C57.3721 65.9468 57.5087 65.981 57.6453 66.0493C57.816 66.1176 57.9184 66.22 58.0209 66.3907C58.0892 66.5615 58.1233 66.698 58.1233 66.8346C58.1233 67.1078 57.8843 67.6883 57.4063 68.576L57.2014 68.9516C57.338 69.0541 57.5087 69.0882 57.7477 69.0882C58.3282 69.0882 59.455 69.1565 61.1623 69.3272C64.2695 69.6687 66.5572 70.1809 68.0255 70.9662C68.2304 71.0687 68.3328 71.2735 68.367 71.5125C68.367 71.7516 68.2987 71.9906 68.1962 72.1613C68.0596 72.332 67.9231 72.4345 67.7523 72.4345L67.5475 72.4003C67.1036 72.2296 66.6938 72.093 66.3865 72.0247C63.5866 71.2394 60.4452 70.8638 56.9624 70.8638L56.6209 70.8979C56.2453 70.9662 54.9819 73.3905 52.7966 78.1368C51.2259 81.5172 49.7577 84.8293 48.3919 88.0731C47.0261 91.3169 46.2407 93.4339 46.0358 94.4241L45.7968 95.5168C45.3529 97.4972 45.1139 98.8631 45.1139 99.6143C45.1139 99.785 45.1139 99.8874 45.1481 99.9557C45.1481 100.024 45.1822 100.092 45.1822 100.126C45.1822 100.263 45.0798 100.331 44.8749 100.331ZM69.1712 81.8928C67.8737 81.8928 67.2249 81.3123 67.1908 80.1172C67.2591 78.9563 67.6347 77.727 68.3517 76.4295C69.0347 75.1661 69.7517 74.1076 70.5371 73.2881C70.9809 72.8784 71.3907 72.6735 71.698 72.6735C72.2102 72.6735 72.4492 72.9125 72.4492 73.3905C72.4492 73.5954 72.1419 74.1759 71.5614 75.0978L69.581 78.2392C69.2054 78.8538 69.0347 79.4001 69.0347 79.844C69.0347 80.4245 69.3078 80.6977 69.8541 80.6977C70.7419 80.6977 72.4151 80.1172 74.8735 78.9221C76.854 78.0002 78.3905 77.1807 79.449 76.4978C79.8246 76.2588 80.1661 76.0197 80.5075 75.8149L82.0782 74.7905C82.2489 74.7905 82.3514 74.8247 82.4197 74.8929C82.4197 75.0295 82.3855 75.132 82.2831 75.2003C80.9173 76.4636 78.971 77.7612 76.4442 79.127C73.9175 80.4928 71.7321 81.3806 69.9224 81.8245C69.6493 81.8928 69.4103 81.8928 69.1712 81.8928ZM74.3955 69.6004C73.7809 69.6004 73.4736 69.2931 73.4736 68.6785C73.4736 68.1663 73.6784 67.8248 74.0882 67.62C74.3955 67.4834 74.6687 67.381 74.976 67.381C75.2833 67.381 75.6247 67.4492 76.0345 67.5858C76.4442 67.6883 76.6491 67.8931 76.6491 68.1663C76.6491 68.6443 76.0345 69.1224 74.8735 69.5321L74.3955 69.6004ZM80.7497 83.4976C79.6229 83.361 79.0766 82.7805 79.0766 81.8245C79.0766 80.2879 79.9644 78.1026 81.74 75.2685C82.3887 74.21 82.8668 73.5613 83.1399 73.254C83.5155 72.8442 83.9253 72.6393 84.3692 72.6393C84.6082 72.6393 84.813 72.7076 84.9838 72.8442C85.2569 73.0491 85.3935 73.3905 85.3935 73.8003C85.3935 74.0052 85.3252 74.1417 85.2569 74.2783L84.7106 74.9271C84.4033 75.2344 83.8911 75.8832 83.2424 76.9075C81.8082 78.9904 81.0912 80.3221 81.0912 80.9367C81.0912 81.3123 81.2619 81.5172 81.6034 81.5172C82.5594 81.5172 84.5399 79.7757 87.613 76.3612C88.4666 75.4393 89.0471 74.8247 89.3544 74.5515L89.6276 74.3125C90.1056 73.8344 90.4812 73.5954 90.7544 73.5954C90.8568 73.5954 90.9934 73.6296 91.0958 73.6979C91.5397 74.0052 91.7446 74.4149 91.7446 74.8929C91.7446 75.1661 91.5397 75.849 91.1641 76.9758C90.447 78.7172 90.1056 79.9465 90.1056 80.6294C90.1056 80.9708 90.208 81.1416 90.447 81.1757C92.7006 81.005 96.3884 78.9221 101.476 74.9954C101.647 74.8588 101.783 74.7905 101.886 74.7905C102.022 74.8247 102.091 74.9271 102.091 75.0637C102.091 75.2685 100.793 76.3953 98.1981 78.4099C94.7494 81.1416 91.9836 82.5074 89.969 82.5074H89.7641C88.8764 82.3367 88.4325 81.6537 88.3983 80.5269C88.3983 79.2636 88.7398 77.727 89.3885 75.9515C88.9446 76.4295 88.3983 77.0441 87.7496 77.7953C86.691 79.0587 85.5301 80.3221 84.2667 81.5172C83.0033 82.7123 81.8424 83.3952 80.7497 83.4976ZM104.358 72.8101C104.392 72.8101 104.461 72.7759 104.529 72.7418C105.792 71.8199 107.397 70.1126 109.343 67.62C111.29 65.1274 113.065 62.5664 114.602 59.9031C115.831 57.6495 116.446 56.0788 116.446 55.2252C116.446 54.713 116.309 54.474 116.002 54.474C115.524 54.474 114.772 55.191 113.782 56.5568C110.368 61.2006 107.397 66.1517 104.836 71.376L104.256 72.6735V72.7418C104.256 72.7759 104.29 72.8101 104.358 72.8101ZM102.207 87.3219H102.139C101.217 87.1853 100.534 86.7756 100.056 86.0585C99.5778 85.3415 99.3387 84.5903 99.3387 83.7708C99.3387 81.2099 100.09 78.0343 101.626 74.1759C103.129 70.3516 104.904 66.6639 106.953 63.0786C109.002 59.5275 110.914 56.7617 112.655 54.7813C113.782 53.4838 114.772 52.835 115.626 52.835H116.104C116.411 52.835 116.719 52.9716 117.06 53.2106C117.504 53.5862 117.743 54.1325 117.743 54.8496C117.743 55.8056 117.47 56.9666 116.889 58.3324C115.865 60.6202 113.885 63.7957 110.88 67.8248C108.729 70.7272 106.475 73.0149 104.187 74.7222C103.983 74.8588 103.812 74.9954 103.641 75.1661C103.197 75.61 102.651 76.9417 102.002 79.1611C101.626 80.3562 101.387 81.8245 101.217 83.6L101.183 84.0781C101.183 85.1707 101.626 85.7853 102.48 85.8536C103.47 85.8195 104.734 85.239 106.339 84.1122C108.387 82.6781 111.29 80.1172 115.08 76.4978C115.729 75.849 116.172 75.4051 116.411 75.2003H116.446C116.719 74.9271 116.889 74.7905 116.992 74.7905C117.026 74.7905 117.06 74.8247 117.094 74.8247C117.129 74.8588 117.163 74.8929 117.197 74.9271C117.265 74.9612 117.299 75.0295 117.299 75.0978L117.265 75.2003L116.855 75.6441C115.831 76.8392 114.363 78.3416 112.485 80.1855C107.636 84.9659 104.222 87.3219 102.207 87.3219ZM116.221 81.8928C114.924 81.8928 114.275 81.3123 114.241 80.1172C114.309 78.9563 114.685 77.727 115.402 76.4295C116.085 75.1661 116.802 74.1076 117.587 73.2881C118.031 72.8784 118.441 72.6735 118.748 72.6735C119.26 72.6735 119.499 72.9125 119.499 73.3905C119.499 73.5954 119.192 74.1759 118.611 75.0978L116.631 78.2392C116.255 78.8538 116.085 79.4001 116.085 79.844C116.085 80.4245 116.358 80.6977 116.904 80.6977C117.792 80.6977 119.465 80.1172 121.924 78.9221C123.904 78.0002 125.441 77.1807 126.499 76.4978C126.875 76.2588 127.216 76.0197 127.558 75.8149L129.128 74.7905C129.299 74.7905 129.401 74.8247 129.47 74.8929C129.47 75.0295 129.436 75.132 129.333 75.2003C127.967 76.4636 126.021 77.7612 123.494 79.127C120.967 80.4928 118.782 81.3806 116.972 81.8245C116.699 81.8928 116.46 81.8928 116.221 81.8928ZM118.953 70.0102C118.646 70.0102 118.509 69.8736 118.509 69.6004C118.509 69.4297 119.089 68.8833 120.216 67.9956C121.753 66.698 122.675 66.0493 122.948 66.0493L123.221 66.0151C123.46 66.0151 123.631 66.0834 123.767 66.2542C123.904 66.3907 123.972 66.5273 123.972 66.6639C123.972 66.7663 123.938 66.8688 123.836 66.9712C123.733 67.0395 122.231 67.9956 119.397 69.8053C119.26 69.9077 119.089 69.976 118.953 70.0102ZM128.995 79.0587C130.497 77.8977 131.761 76.5661 132.785 75.132C133.263 74.5173 133.775 73.9027 134.287 73.2881L133.878 73.254C133.707 73.254 133.502 73.3905 133.195 73.6296C131.453 74.9612 130.088 76.5661 129.131 78.5124L128.995 79.0587ZM131.009 89.5413C130.566 89.5413 130.327 89.1999 130.327 88.517C130.327 88.0389 130.429 87.356 130.634 86.4683C131.522 83.3269 132.683 80.2879 134.117 77.3514C134.97 75.5759 135.38 74.5515 135.38 74.3125C135.38 74.1759 135.346 74.0735 135.312 74.0052C134.902 74.4832 134.458 75.0295 133.946 75.6783C133.229 76.6002 132.444 77.5221 131.624 78.4441C130.19 80.0148 129.097 80.8001 128.346 80.8001C128.005 80.8001 127.731 80.6977 127.492 80.4587C127.288 80.1855 127.151 79.8782 127.151 79.4343C127.151 78.2392 127.936 76.5661 129.473 74.4149C130.327 73.2198 131.317 72.2637 132.375 71.5467C132.887 71.2052 133.365 71.0004 133.878 71.0004C134.526 71.0004 135.175 71.3418 135.824 71.9906L136.848 70.5565C137.975 69.0882 139.034 67.4492 140.058 65.6737C141.526 62.9762 143.336 60.4153 145.453 57.9568C145.692 57.6154 145.999 57.4446 146.307 57.4446C146.58 57.4446 146.819 57.5471 146.99 57.6836C147.16 57.8544 147.263 58.0251 147.263 58.1617C147.263 58.4348 147.024 58.7422 146.614 59.1178C146.443 59.2543 146.307 59.4251 146.17 59.5958C140.809 66.4932 136.234 74.8247 132.478 84.5561C132.17 85.3415 131.931 86.1609 131.726 86.9804C131.522 87.3902 131.419 87.9024 131.419 88.4828C131.419 88.7219 131.453 88.9609 131.487 89.1999V89.2682C131.487 89.4389 131.351 89.5413 131.009 89.5413ZM141.73 81.8928C140.433 81.8928 139.784 81.3123 139.75 80.1172C139.818 78.9563 140.194 77.727 140.911 76.4295C141.594 75.1661 142.311 74.1076 143.096 73.2881C143.54 72.8784 143.95 72.6735 144.257 72.6735C144.769 72.6735 145.008 72.9125 145.008 73.3905C145.008 73.5954 144.701 74.1759 144.12 75.0978L142.14 78.2392C141.764 78.8538 141.594 79.4001 141.594 79.844C141.594 80.4245 141.867 80.6977 142.413 80.6977C143.301 80.6977 144.974 80.1172 147.433 78.9221C149.413 78.0002 150.95 77.1807 152.008 76.4978C152.384 76.2588 152.725 76.0197 153.067 75.8149L154.637 74.7905C154.808 74.7905 154.91 74.8247 154.979 74.8929C154.979 75.0295 154.945 75.132 154.842 75.2003C153.476 76.4636 151.53 77.7612 149.003 79.127C146.477 80.4928 144.291 81.3806 142.482 81.8245C142.208 81.8928 141.969 81.8928 141.73 81.8928ZM146.955 69.6004C146.34 69.6004 146.033 69.2931 146.033 68.6785C146.033 68.1663 146.238 67.8248 146.647 67.62C146.955 67.4834 147.228 67.381 147.535 67.381C147.842 67.381 148.184 67.4492 148.594 67.5858C149.003 67.6883 149.208 67.8931 149.208 68.1663C149.208 68.6443 148.594 69.1224 147.433 69.5321L146.955 69.6004ZM155.05 76.9075C155.119 76.9075 155.289 76.8392 155.528 76.6685C156.792 75.9173 157.748 75.3027 158.431 74.7905C158.192 74.4832 157.953 74.3466 157.645 74.3466C157.543 74.3466 157.406 74.3808 157.304 74.4149C156.416 74.7905 155.631 75.5076 154.982 76.6002V76.7709C154.982 76.8734 154.982 76.9075 155.05 76.9075ZM159.831 80.6977C159.694 80.6977 159.421 80.6977 159.079 80.6635C158.704 80.6294 158.396 80.3562 158.123 79.844C157.987 79.5026 157.918 79.1611 157.918 78.7855C157.918 78.0343 158.123 77.249 158.567 76.3953C157.918 76.8392 157.167 77.2831 156.279 77.7953C154.914 78.5807 154.06 78.9563 153.753 78.9563C153.514 78.9563 153.343 78.888 153.138 78.7514C152.967 78.6148 152.865 78.4099 152.865 78.2051C152.865 78.0002 152.933 77.7953 153.036 77.5904C153.445 76.1905 154.299 74.8929 155.665 73.6979C156.245 73.2198 156.894 72.9808 157.611 72.9808C157.645 72.9808 157.884 72.9808 158.294 73.0149C158.704 73.0491 159.079 73.3223 159.455 73.8686L159.523 73.9369C159.557 73.9369 159.66 73.9027 159.762 73.8003C159.899 73.6979 160.035 73.6637 160.172 73.6637C160.377 73.6637 160.548 73.6979 160.684 73.8344C160.821 73.971 160.889 74.1076 160.889 74.2442C160.889 74.3808 160.753 74.7905 160.411 75.4393C159.626 76.8734 159.216 77.966 159.216 78.7172C159.216 79.2636 159.489 79.5709 160.07 79.5709C160.65 79.5709 161.47 79.366 162.528 78.9904C164.167 78.3758 165.806 77.6246 167.445 76.7368C169.084 75.8832 170.177 75.2344 170.723 74.8588C170.791 74.7905 170.86 74.7905 170.928 74.7905C171.099 74.7905 171.201 74.8929 171.201 75.1661C171.201 75.2344 171.167 75.3027 171.099 75.371C170.177 76.1222 168.982 76.9417 167.479 77.7953C165.943 78.6831 164.44 79.4001 162.904 79.9806C161.743 80.4587 160.718 80.6977 159.831 80.6977Z" fill="#A1D0FF"/>
<path d="M54.3995 140.281C53.4093 140.281 52.3508 140.111 51.1898 139.735C50.0289 139.359 49.0045 138.608 48.1167 137.447C47.229 136.321 46.7851 134.818 46.7509 133.008C46.7851 130.004 47.707 127.101 49.5167 124.233C52.3508 119.931 56.5848 116.004 62.2188 112.453C63.3798 111.77 64.1993 110.95 64.6431 109.96C67.3406 104.463 69.9357 100.024 72.4624 96.7118C73.1795 95.7899 73.76 95.3119 74.2039 95.3119C74.5453 95.3119 74.716 95.5167 74.716 95.8923C74.716 96.4387 74.477 97.0874 73.999 97.8045C69.6625 104.975 67.2382 109.004 66.7602 109.858H66.8967C66.9992 109.858 67.1016 109.824 67.204 109.721C69.2869 108.663 70.9942 107.912 72.3942 107.502L72.5649 107.468C72.6332 107.468 72.7356 107.502 72.8722 107.604C72.9746 107.673 73.0429 107.809 73.0429 108.014C73.0429 108.219 72.9405 108.355 72.7015 108.458C71.7112 108.765 70.6869 109.175 69.6625 109.687C68.1601 110.472 67.0333 111.087 66.3163 111.565C66.1455 111.668 65.9748 111.907 65.7699 112.316C65.7358 112.316 65.7358 112.316 65.7358 112.35C64.2675 114.98 62.5944 118.599 60.7506 123.175C58.6677 128.296 57.4385 132.052 57.0629 134.545C57.0287 134.886 56.7897 135.125 56.3117 135.194C56.1751 135.194 56.0385 135.16 55.9019 135.057C55.7653 134.989 55.697 134.921 55.697 134.818C55.697 133.043 56.6531 129.56 58.5653 124.37C59.9311 120.648 61.3652 117.063 62.8334 113.614L62.8676 113.477L62.5603 113.614C58.7701 116.141 55.8678 118.462 53.8532 120.545C51.1557 123.345 49.4143 126.145 48.5948 129.013C48.185 130.413 47.9802 131.745 47.9802 132.974C47.9802 134.784 48.3899 136.15 49.2777 137.106C50.4728 138.506 52.2825 139.189 54.741 139.189C56.619 139.189 58.6335 138.779 60.8189 137.925C63.6871 136.867 66.3163 135.33 68.7064 133.384C77.8233 126.111 83.4573 118.019 85.6767 109.107C86.2231 106.785 86.5304 104.497 86.5304 102.243C86.5304 100.263 86.2231 98.4191 85.6426 96.6435C85.0621 94.9021 84.106 93.5363 82.7744 92.6144C81.4427 91.6924 79.8037 91.2144 77.9257 91.2144C74.7843 91.2144 71.882 91.6583 69.2186 92.5119C66.5211 93.3656 63.9261 94.6972 61.3993 96.507C60.9213 96.8826 60.6823 97.2582 60.6823 97.6679C60.614 98.0435 60.4433 98.2825 60.1018 98.4532C59.5555 98.7264 59.0091 98.863 58.497 98.863C58.4287 98.863 58.2921 98.863 58.0872 98.863C57.8823 98.8288 57.6775 98.6923 57.5067 98.4191C57.4385 98.2825 57.4043 98.1118 57.4043 97.9752C57.4043 97.463 57.6775 96.9167 58.2238 96.3704C59.0774 95.6533 60.1701 94.9363 61.5018 94.1851L62.6969 93.468C65.0187 92.068 67.3748 91.0437 69.7991 90.3949C72.5307 89.6437 75.1941 89.2681 77.755 89.2681C80.5549 89.2681 82.9451 90.2242 84.9597 92.1705C85.9499 93.1607 86.7011 94.3558 87.2133 95.7899C87.8279 97.5996 88.1352 99.8532 88.1352 102.585C88.1352 104.258 88.0328 105.795 87.7596 107.229C86.8035 112.18 84.7548 116.994 81.6134 121.706C78.3696 126.521 74.238 130.755 69.2528 134.443C65.2578 137.447 60.9213 139.325 56.2434 140.145C55.6287 140.247 55.0141 140.281 54.3995 140.281ZM88.5116 126.623C87.2141 126.623 86.5653 126.043 86.5312 124.848C86.5995 123.687 86.9751 122.457 87.6921 121.16C88.375 119.897 89.0921 118.838 89.8774 118.019C90.3213 117.609 90.7311 117.404 91.0384 117.404C91.5506 117.404 91.7896 117.643 91.7896 118.121C91.7896 118.326 91.4823 118.906 90.9018 119.828L88.9214 122.97C88.5458 123.584 88.375 124.131 88.375 124.575C88.375 125.155 88.6482 125.428 89.1945 125.428C90.0823 125.428 91.7554 124.848 94.2139 123.653C96.1943 122.731 97.7309 121.911 98.7894 121.228C99.165 120.989 99.5064 120.75 99.8479 120.545L101.419 119.521C101.589 119.521 101.692 119.555 101.76 119.623C101.76 119.76 101.726 119.862 101.623 119.931C100.258 121.194 98.3113 122.492 95.7846 123.857C93.2578 125.223 91.0725 126.111 89.2628 126.555C88.9896 126.623 88.7506 126.623 88.5116 126.623ZM93.7359 114.331C93.1212 114.331 92.8139 114.024 92.8139 113.409C92.8139 112.897 93.0188 112.555 93.4286 112.35C93.7359 112.214 94.009 112.111 94.3163 112.111C94.6236 112.111 94.9651 112.18 95.3748 112.316C95.7846 112.419 95.9895 112.624 95.9895 112.897C95.9895 113.375 95.3748 113.853 94.2139 114.263L93.7359 114.331ZM101.832 121.638C101.9 121.638 102.071 121.57 102.31 121.399C103.573 120.648 104.529 120.033 105.212 119.521C104.973 119.214 104.734 119.077 104.427 119.077C104.324 119.077 104.188 119.111 104.085 119.145C103.197 119.521 102.412 120.238 101.763 121.331V121.501C101.763 121.604 101.763 121.638 101.832 121.638ZM106.612 125.428C106.475 125.428 106.202 125.428 105.861 125.394C105.485 125.36 105.178 125.087 104.905 124.575C104.768 124.233 104.7 123.892 104.7 123.516C104.7 122.765 104.905 121.979 105.349 121.126C104.7 121.57 103.949 122.014 103.061 122.526C101.695 123.311 100.841 123.687 100.534 123.687C100.295 123.687 100.124 123.618 99.9194 123.482C99.7487 123.345 99.6462 123.14 99.6462 122.936C99.6462 122.731 99.7145 122.526 99.817 122.321C100.227 120.921 101.08 119.623 102.446 118.428C103.027 117.95 103.675 117.711 104.392 117.711C104.427 117.711 104.666 117.711 105.075 117.745C105.485 117.78 105.861 118.053 106.236 118.599L106.305 118.667C106.339 118.667 106.441 118.633 106.544 118.531C106.68 118.428 106.817 118.394 106.953 118.394C107.158 118.394 107.329 118.428 107.466 118.565C107.602 118.701 107.67 118.838 107.67 118.975C107.67 119.111 107.534 119.521 107.192 120.17C106.407 121.604 105.997 122.697 105.997 123.448C105.997 123.994 106.27 124.301 106.851 124.301C107.431 124.301 108.251 124.096 109.309 123.721C110.948 123.106 112.587 122.355 114.226 121.467C115.865 120.614 116.958 119.965 117.504 119.589C117.573 119.521 117.641 119.521 117.709 119.521C117.88 119.521 117.982 119.623 117.982 119.897C117.982 119.965 117.948 120.033 117.88 120.101C116.958 120.853 115.763 121.672 114.26 122.526C112.724 123.414 111.222 124.131 109.685 124.711C108.524 125.189 107.5 125.428 106.612 125.428ZM115.784 135.16C116.262 135.16 116.842 135.057 117.491 134.818C119.403 134.101 121.076 132.838 122.544 131.062C124.013 129.321 125.003 127.443 125.583 125.428C125.686 125.121 125.72 124.745 125.72 124.404C125.72 123.857 125.652 123.482 125.549 123.209C123.637 123.823 121.657 124.848 119.642 126.282C117.628 127.716 115.989 129.287 114.793 130.96C114.247 131.847 113.974 132.667 113.974 133.35C113.974 134.579 114.589 135.16 115.784 135.16ZM115.818 136.218C115.032 136.218 114.35 135.979 113.837 135.467C113.325 134.989 113.052 134.306 113.052 133.452V132.701C113.052 132.257 113.393 131.472 114.111 130.413C115.271 128.74 116.842 127.17 118.823 125.701C120.803 124.233 122.852 123.14 125.003 122.389C124.901 122.184 124.218 122.082 122.954 122.014C121.862 121.945 120.769 121.775 119.676 121.536C118.584 121.297 117.901 120.853 117.628 120.136L117.593 119.658C117.593 118.77 118.071 117.78 119.096 116.619C120.086 115.492 121.315 114.467 122.749 113.58C124.047 112.76 125.105 112.385 125.925 112.385C126.369 112.385 126.847 112.555 127.291 112.931C127.769 113.307 128.008 113.682 128.008 114.058C128.008 114.433 127.871 114.843 127.564 115.355C127.359 115.697 127.12 115.902 126.779 115.902C126.335 115.902 125.959 115.594 125.652 115.014C125.515 114.775 125.276 114.672 124.969 114.672C124.32 114.672 123.33 115.15 121.998 116.175C120.53 117.233 119.745 118.258 119.71 119.248C119.745 119.658 119.949 119.931 120.325 120.101C120.701 120.272 121.349 120.409 122.237 120.443C123.091 120.511 123.944 120.648 124.798 120.819C125.652 120.989 126.232 121.331 126.539 121.775C127.803 121.331 129.51 120.887 131.627 120.409C134.564 119.726 136.408 119.384 137.09 119.384C137.364 119.384 137.5 119.487 137.5 119.623C137.5 119.76 137.329 119.862 136.954 119.965C135.725 120.136 134.086 120.511 132.003 121.023C129.92 121.536 128.247 122.048 127.018 122.56C126.949 122.594 126.915 122.628 126.915 122.697L126.949 122.833C127.052 123.106 127.086 123.584 127.086 124.267C127.086 124.95 126.949 125.735 126.642 126.657C125.891 128.57 124.73 130.379 123.193 132.052C121.657 133.725 119.915 134.989 118.003 135.774C117.184 136.047 116.467 136.218 115.818 136.218Z" fill="#A1D0FF"/>
</svg>
