<svg width="32" height="32" viewBox="0 0 32 32" fill="none" xmlns="http://www.w3.org/2000/svg">
<rect width="32" height="32" rx="4" fill="#3C040D"/>
<path d="M12.7534 21.9377C11.749 22.8069 10.5708 23.1931 9.39261 23.1931C6.2829 23.1931 3.59811 20.2766 3.59811 15.8535C3.59811 11.4883 6.22495 8.61033 10.0686 8.61033C12.2512 8.61033 14.1055 9.53745 14.8008 11.5269C15.9211 14.7525 12.2126 15.583 11.4979 11.9711C11.2855 10.8316 11.3048 9.01594 9.95275 9.01594C8.31097 9.01594 6.84303 11.7394 6.84303 15.3513C6.84303 18.9632 8.31097 21.3582 10.5901 21.3582C10.9571 21.3582 11.2855 21.3003 11.6138 21.2037V18.036C11.6138 17.36 11.3241 16.5681 10.8992 16.0659L10.5901 15.6989H15.8631L15.5541 16.0659C15.1292 16.5681 14.8588 17.36 14.8588 18.036V23L12.7534 21.9377ZM20.4452 22.5944H21.1984C23.3231 22.5944 25.1194 21.2037 25.1194 15.9114C25.1194 10.6384 23.3231 9.20909 21.1984 9.20909H20.4452V22.5944ZM22.8209 23H16.1959L16.5049 22.633C16.9298 22.1308 17.2002 21.3389 17.2002 20.6629V11.1406C17.2002 10.4646 16.9298 9.67265 16.5049 9.17046L16.1959 8.80348H22.8209C25.1773 8.80348 28.3643 10.368 28.3643 15.9114C28.3643 21.4355 25.1773 23 22.8209 23Z" fill="#A1D0FF"/>
</svg>
