<svg width="1819" height="1571" viewBox="0 0 1819 1571" fill="none" xmlns="http://www.w3.org/2000/svg">
<g clip-path="url(#clip0_7584_288)">
<rect width="1819" height="1571" rx="50" fill="#1E3A8A"/>
<path d="M1622.5 1348.5C1821.86 1156.75 1759.16 1041.99 1721.58 994.928C1569.5 804.5 1367.18 786.5 1192 1089.5C1016.82 1392.5 640.443 808.091 475.456 620C663.344 539.797 880.019 242.996 507.5 53.4999C277.355 -63.0018 29.592 234.026 40.2252 373.692C44.4573 642.769 163.613 844.919 534.001 1230C909.305 1620.19 1336.25 1623.83 1622.5 1348.5Z" fill="#C2000F"/>
<path d="M406.809 578.129C386.408 637.821 339.183 665.778 294.981 665.778C231.511 665.778 178.998 608.731 178.998 522.216C178.998 436.834 230.378 380.542 305.559 380.542C348.25 380.542 384.519 398.676 398.119 437.589C420.031 500.681 347.495 516.926 333.516 446.279C329.36 423.989 329.738 388.476 303.292 388.476C271.18 388.476 242.467 441.745 242.467 506.348C242.467 571.329 271.18 617.798 322.56 617.798C357.317 617.798 386.785 596.264 406.809 578.129ZM483.755 563.017C483.755 620.065 501.889 658.222 533.624 658.222C564.981 658.222 583.493 620.065 583.493 563.017C583.493 505.592 564.981 467.813 533.624 467.813C501.889 467.813 483.755 505.592 483.755 563.017ZM420.285 563.017C420.285 501.059 461.465 459.879 533.624 459.879C605.405 459.879 646.963 501.059 646.963 563.017C646.963 624.598 605.405 665.778 533.624 665.778C461.465 665.778 420.285 624.598 420.285 563.017ZM878.121 522.593V616.287C878.121 629.51 883.788 644.999 892.099 654.822L897.766 662H794.628L800.673 654.822C808.984 644.999 814.651 629.51 814.651 616.287V542.616C814.651 505.592 804.073 486.703 783.294 486.703C757.982 486.703 739.092 516.549 739.092 560.751V616.287C739.092 629.51 744.759 644.999 753.07 654.822L759.115 662H655.977L662.022 654.822C670.333 644.999 675.622 629.51 675.622 616.287V509.37C675.622 496.148 670.333 480.658 662.022 470.835L655.977 463.657H739.092V514.66C752.315 480.28 781.027 459.879 816.918 459.879C857.72 459.879 878.121 485.947 878.121 522.593ZM892.775 471.591V463.657H912.421C946.8 463.657 967.957 442.878 967.957 406.232H975.89V463.657H1030.67V471.591H975.89V578.129C975.89 623.087 977.401 658.222 995.536 658.222C1006.87 658.222 1009.51 644.244 1010.27 634.799C1014.43 572.84 1074.49 584.174 1065.81 622.709C1060.89 644.621 1036.34 665.778 995.536 665.778C941.889 665.778 912.421 636.688 912.421 574.729V471.591H892.775ZM1198.27 562.262H1189.58C1158.98 562.262 1139.34 584.174 1139.34 613.642C1139.34 635.176 1149.92 650.288 1164.27 650.288C1181.65 650.288 1198.27 627.998 1198.27 581.152V562.262ZM1276.85 655.955L1281.77 662H1198.27V629.132C1188.45 652.933 1169.56 665.778 1140.09 665.778C1101.18 665.778 1075.87 643.11 1075.87 614.02C1075.87 573.596 1124.98 554.328 1168.81 554.328H1198.27V531.66C1198.27 486.703 1185.43 467.813 1170.69 467.813C1154.45 467.813 1148.4 489.725 1146.14 500.681C1131.4 569.44 1084.18 549.417 1092.11 508.993C1097.78 481.036 1126.11 459.879 1171.45 459.879C1220.56 459.879 1261.74 485.191 1261.74 547.15V614.776C1261.74 628.754 1267.79 645.377 1276.85 655.955ZM1402.85 630.265C1414.18 630.265 1438.36 626.487 1467.45 600.041C1453.85 630.643 1426.65 665.778 1380.56 665.778C1331.07 665.778 1289.89 624.598 1289.89 563.017C1289.89 501.059 1331.07 459.879 1385.85 459.879C1425.52 459.879 1454.23 481.036 1459.52 508.993C1467.45 549.417 1420.23 569.44 1405.87 500.681C1403.23 489.725 1397.56 467.813 1383.58 467.813C1366.58 467.813 1353.36 502.57 1353.36 547.528C1353.36 600.041 1371.49 630.265 1402.85 630.265ZM1471.64 471.591V463.657H1491.29C1525.67 463.657 1546.83 442.878 1546.83 406.232H1554.76V463.657H1609.54V471.591H1554.76V578.129C1554.76 623.087 1556.27 658.222 1574.4 658.222C1585.74 658.222 1588.38 644.244 1589.14 634.799C1593.29 572.84 1653.36 584.174 1644.67 622.709C1639.76 644.621 1615.21 665.778 1574.4 665.778C1520.76 665.778 1491.29 636.688 1491.29 574.729V471.591H1471.64ZM530.035 1022.13C509.634 1081.82 462.409 1109.78 418.207 1109.78C354.738 1109.78 302.224 1052.73 302.224 966.216C302.224 880.834 353.604 824.542 428.786 824.542C471.477 824.542 507.745 842.676 521.346 881.589C543.258 944.681 470.721 960.926 456.743 890.279C452.587 867.989 452.965 832.476 426.519 832.476C394.406 832.476 365.694 885.745 365.694 950.348C365.694 1015.33 394.406 1061.8 445.786 1061.8C480.544 1061.8 510.012 1040.26 530.035 1022.13ZM607.359 991.528V992.283H655.717C656.85 935.614 647.406 911.813 633.427 911.813C617.182 911.813 607.359 943.926 607.359 991.528ZM656.473 1074.27C668.184 1074.27 692.363 1070.49 721.454 1044.04C707.853 1074.64 680.652 1109.78 634.56 1109.78C585.069 1109.78 543.889 1068.6 543.889 1007.02C543.889 945.059 585.069 903.879 635.694 903.879C681.785 903.879 713.52 938.259 713.52 992.283V1000.22H607.359C609.248 1047.44 627.005 1074.27 656.473 1074.27ZM948.589 966.593V1060.29C948.589 1073.51 954.256 1089 962.567 1098.82L968.234 1106H865.096L871.14 1098.82C879.452 1089 885.119 1073.51 885.119 1060.29V986.616C885.119 949.592 874.541 930.703 853.762 930.703C828.449 930.703 809.56 960.549 809.56 1004.75V1060.29C809.56 1073.51 815.227 1089 823.538 1098.82L829.583 1106H726.445L732.489 1098.82C740.801 1089 746.09 1073.51 746.09 1060.29V953.37C746.09 940.148 740.801 924.658 732.489 914.835L726.445 907.657H809.56V958.66C822.783 924.28 851.495 903.879 887.386 903.879C928.188 903.879 948.589 929.947 948.589 966.593ZM963.243 915.591V907.657H982.888C1017.27 907.657 1038.42 886.878 1038.42 850.232H1046.36V907.657H1101.14V915.591H1046.36V1022.13C1046.36 1067.09 1047.87 1102.22 1066 1102.22C1077.34 1102.22 1079.98 1088.24 1080.74 1078.8C1084.89 1016.84 1144.96 1028.17 1136.27 1066.71C1131.36 1088.62 1106.81 1109.78 1066 1109.78C1012.36 1109.78 982.888 1080.69 982.888 1018.73V915.591H963.243ZM1211.32 991.528V992.283H1259.67C1260.81 935.614 1251.36 911.813 1237.38 911.813C1221.14 911.813 1211.32 943.926 1211.32 991.528ZM1260.43 1074.27C1272.14 1074.27 1296.32 1070.49 1325.41 1044.04C1311.81 1074.64 1284.61 1109.78 1238.52 1109.78C1189.03 1109.78 1147.85 1068.6 1147.85 1007.02C1147.85 945.059 1189.03 903.879 1239.65 903.879C1285.74 903.879 1317.48 938.259 1317.48 992.283V1000.22H1211.32C1213.21 1047.44 1230.96 1074.27 1260.43 1074.27ZM1427.5 1098.82L1433.54 1106H1330.4L1336.45 1098.82C1344.76 1089 1350.05 1073.51 1350.05 1060.29V953.37C1350.05 940.148 1344.76 924.658 1336.45 914.835L1330.4 907.657H1413.52V950.348C1423.34 921.258 1441.47 903.879 1466.41 903.879C1491.34 903.879 1514.77 921.636 1520.06 949.215C1527.99 993.417 1480.76 1013.44 1467.16 950.726C1463.76 933.725 1457.72 923.525 1446.01 923.525C1426.36 923.525 1413.52 951.481 1413.52 1007.02V1060.29C1413.52 1073.51 1419.18 1089 1427.5 1098.82Z" fill="white"/>
<path d="M646.256 1293.96C630.416 1293.96 619.76 1283.3 619.76 1267.08V1234.06C619.76 1230.7 618.416 1226.76 616.304 1224.26L614.768 1222.44H640.976L639.44 1224.26C637.328 1226.76 635.888 1230.7 635.888 1234.06V1269C635.888 1282.44 643.376 1290.02 652.4 1290.02C661.136 1290.02 669.776 1282.63 669.776 1268.04V1234.06C669.776 1230.7 668.432 1226.76 666.32 1224.26L664.784 1222.44H676.88L675.344 1224.26C673.232 1226.76 671.792 1230.7 671.792 1234.06V1267.08C671.792 1283.11 662.096 1293.96 646.256 1293.96ZM731.224 1237.22L719.896 1255.08L733.624 1278.22C735.352 1281 738.04 1284.46 740.632 1286.66L747.448 1293H716.632L717.112 1288.49C717.496 1285.13 716.632 1281 714.904 1278.22L705.496 1262.38L695.512 1278.22C693.784 1281 692.632 1285.13 692.536 1288.49L692.44 1293H676.888L685.72 1286.28C688.408 1284.26 691.384 1281 693.112 1278.22L704.44 1260.36L690.712 1237.22C688.984 1234.44 686.296 1230.98 683.704 1228.78L676.888 1222.44H707.704L707.224 1226.95C706.84 1230.31 707.704 1234.44 709.432 1237.22L718.84 1253.06L728.824 1237.22C730.552 1234.44 731.704 1230.31 731.8 1226.95L731.896 1222.44H747.448L738.616 1229.16C735.928 1231.18 732.952 1234.44 731.224 1237.22ZM804 1259.78H809.76C820.32 1259.78 827.232 1252.78 827.232 1242.31C827.232 1231.56 820.32 1224.46 809.76 1224.46H804V1259.78ZM807.552 1291.18L809.088 1293H782.88L784.416 1291.18C786.528 1288.68 787.872 1284.74 787.872 1281.38V1234.06C787.872 1230.7 786.528 1226.76 784.416 1224.26L782.88 1222.44H823.872C835.584 1222.44 843.36 1230.22 843.36 1241.93C843.36 1254.02 835.584 1261.8 823.872 1261.8H823.776C827.616 1262.86 830.976 1265.64 832.512 1269.58L835.584 1277.74C836.832 1280.9 839.232 1284.46 841.632 1286.76L848.352 1293H829.824C826.56 1293 823.488 1290.89 822.144 1287.82L811.296 1261.8H804V1281.38C804 1284.74 805.44 1288.68 807.552 1291.18ZM862.959 1263.91V1264.1H875.247C875.535 1249.7 873.135 1243.66 869.583 1243.66C865.455 1243.66 862.959 1251.82 862.959 1263.91ZM875.439 1284.94C878.415 1284.94 884.559 1283.98 891.951 1277.26C888.495 1285.03 881.583 1293.96 869.871 1293.96C857.295 1293.96 846.831 1283.5 846.831 1267.85C846.831 1252.1 857.295 1241.64 870.159 1241.64C881.871 1241.64 889.935 1250.38 889.935 1264.1V1266.12H862.959C863.439 1278.12 867.951 1284.94 875.439 1284.94ZM922.749 1286.76C922.749 1275.05 896.925 1270.63 896.925 1255.27C896.925 1246.92 904.509 1241.64 915.933 1241.64C927.645 1241.64 934.941 1247.02 936.285 1254.12C938.301 1264.39 926.301 1269.48 922.557 1252.01C921.981 1249.22 920.445 1243.66 916.317 1243.66C913.533 1243.66 911.709 1246.25 911.709 1249.22C911.709 1260.55 937.533 1266.02 937.533 1280.62C937.533 1288.78 929.565 1293.96 917.277 1293.96C904.797 1293.96 897.501 1288.58 896.061 1281.48C894.045 1271.21 906.045 1266.12 909.789 1283.59C910.365 1286.38 911.901 1292.04 917.469 1292.04C920.829 1292.04 922.749 1289.83 922.749 1286.76ZM958.209 1263.91V1264.1H970.497C970.785 1249.7 968.385 1243.66 964.833 1243.66C960.705 1243.66 958.209 1251.82 958.209 1263.91ZM970.689 1284.94C973.665 1284.94 979.809 1283.98 987.201 1277.26C983.745 1285.03 976.833 1293.96 965.121 1293.96C952.545 1293.96 942.081 1283.5 942.081 1267.85C942.081 1252.1 952.545 1241.64 965.409 1241.64C977.121 1241.64 985.185 1250.38 985.185 1264.1V1266.12H958.209C958.689 1278.12 963.201 1284.94 970.689 1284.94ZM1021.55 1267.66H1019.34C1011.57 1267.66 1006.57 1273.22 1006.57 1280.71C1006.57 1286.18 1009.26 1290.02 1012.91 1290.02C1017.33 1290.02 1021.55 1284.36 1021.55 1272.46V1267.66ZM1041.52 1291.46L1042.77 1293H1021.55V1284.65C1019.05 1290.7 1014.25 1293.96 1006.77 1293.96C996.879 1293.96 990.447 1288.2 990.447 1280.81C990.447 1270.54 1002.93 1265.64 1014.06 1265.64H1021.55V1259.88C1021.55 1248.46 1018.29 1243.66 1014.54 1243.66C1010.41 1243.66 1008.88 1249.22 1008.3 1252.01C1004.56 1269.48 992.559 1264.39 994.575 1254.12C996.015 1247.02 1003.21 1241.64 1014.73 1241.64C1027.21 1241.64 1037.68 1248.07 1037.68 1263.82V1281C1037.68 1284.55 1039.21 1288.78 1041.52 1291.46ZM1069.48 1291.18L1071.02 1293H1044.81L1046.35 1291.18C1048.46 1288.68 1049.8 1284.74 1049.8 1281.38V1254.22C1049.8 1250.86 1048.46 1246.92 1046.35 1244.42L1044.81 1242.6H1065.93V1253.45C1068.43 1246.06 1073.04 1241.64 1079.37 1241.64C1085.71 1241.64 1091.66 1246.15 1093 1253.16C1095.02 1264.39 1083.02 1269.48 1079.56 1253.54C1078.7 1249.22 1077.16 1246.63 1074.19 1246.63C1069.2 1246.63 1065.93 1253.74 1065.93 1267.85V1281.38C1065.93 1284.74 1067.37 1288.68 1069.48 1291.18ZM1125 1284.94C1127.88 1284.94 1134.03 1283.98 1141.42 1277.26C1137.96 1285.03 1131.05 1293.96 1119.34 1293.96C1106.76 1293.96 1096.3 1283.5 1096.3 1267.85C1096.3 1252.1 1106.76 1241.64 1120.68 1241.64C1130.76 1241.64 1138.06 1247.02 1139.4 1254.12C1141.42 1264.39 1129.42 1269.48 1125.77 1252.01C1125.1 1249.22 1123.66 1243.66 1120.11 1243.66C1115.79 1243.66 1112.43 1252.49 1112.43 1263.91C1112.43 1277.26 1117.04 1284.94 1125 1284.94ZM1199.04 1257.58V1281.38C1199.04 1284.74 1200.48 1288.68 1202.59 1291.18L1204.03 1293H1177.82L1179.36 1291.18C1181.47 1288.68 1182.91 1284.74 1182.91 1281.38V1262.66C1182.91 1253.26 1180.22 1248.46 1174.94 1248.46C1168.51 1248.46 1163.71 1256.04 1163.71 1267.27V1281.38C1163.71 1284.74 1165.15 1288.68 1167.26 1291.18L1168.8 1293H1142.59L1144.12 1291.18C1146.24 1288.68 1147.58 1284.74 1147.58 1281.38V1234.06C1147.58 1230.7 1146.24 1226.76 1144.12 1224.26L1142.59 1222.44H1163.71V1255.56C1167.07 1246.82 1174.36 1241.64 1183.48 1241.64C1193.85 1241.64 1199.04 1248.26 1199.04 1257.58Z" fill="white"/>
</g>
<defs>
<clipPath id="clip0_7584_288">
<rect width="1819" height="1571" rx="50" fill="white"/>
</clipPath>
</defs>
</svg>
