<svg width="1819" height="1571" viewBox="0 0 1819 1571" fill="none" xmlns="http://www.w3.org/2000/svg">
<rect width="1819" height="1571" rx="50" fill="#C2000F"/>
<path d="M886.174 875.942V926.017C886.174 933.084 889.203 941.363 893.645 946.613L896.674 950.449H841.551L844.782 946.613C849.224 941.363 852.252 933.084 852.252 926.017V886.644C852.252 866.856 846.599 856.76 835.493 856.76C821.965 856.76 811.869 872.712 811.869 896.336V926.017C811.869 933.084 814.898 941.363 819.34 946.613L822.571 950.449H767.448L770.679 946.613C775.121 941.363 777.948 933.084 777.948 926.017V868.875C777.948 861.808 775.121 853.53 770.679 848.28L767.448 844.444H811.869V871.702C818.936 853.328 834.282 842.424 853.464 842.424C875.271 842.424 886.174 856.357 886.174 875.942ZM952.819 946.613L956.05 950.449H900.927L904.157 946.613C908.599 941.363 911.426 933.084 911.426 926.017V826.473C911.426 819.406 908.599 811.128 904.157 805.878L900.927 802.041H945.348V926.017C945.348 933.084 948.377 941.363 952.819 946.613ZM1012.97 946.613L1016.2 950.449H961.082L964.312 946.613C968.754 941.363 971.581 933.084 971.581 926.017V868.875C971.581 861.808 968.754 853.53 964.312 848.28L961.082 844.444H1005.5V926.017C1005.5 933.084 1008.53 941.363 1012.97 946.613ZM965.726 820.416C965.726 808.099 974.004 800.022 988.34 800.022C1002.88 800.022 1011.16 808.099 1011.16 820.416C1011.16 832.732 1002.88 841.011 988.34 841.011C974.004 841.011 965.726 832.732 965.726 820.416ZM1139.95 875.942V926.017C1139.95 933.084 1142.98 941.363 1147.42 946.613L1150.45 950.449H1095.33L1098.56 946.613C1103 941.363 1106.03 933.084 1106.03 926.017V886.644C1106.03 866.856 1100.37 856.76 1089.27 856.76C1075.74 856.76 1065.64 872.712 1065.64 896.336V926.017C1065.64 933.084 1068.67 941.363 1073.11 946.613L1076.35 950.449H1021.22L1024.45 946.613C1028.9 941.363 1031.72 933.084 1031.72 926.017V868.875C1031.72 861.808 1028.9 853.53 1024.45 848.28L1021.22 844.444H1065.64V871.702C1072.71 853.328 1088.06 842.424 1107.24 842.424C1129.05 842.424 1139.95 856.357 1139.95 875.942ZM1189.27 889.269V889.673H1215.11C1215.72 859.385 1210.67 846.665 1203.2 846.665C1194.52 846.665 1189.27 863.827 1189.27 889.269ZM1215.52 933.488C1221.78 933.488 1234.7 931.469 1250.25 917.335C1242.98 933.69 1228.44 952.468 1203.8 952.468C1177.35 952.468 1155.34 930.46 1155.34 897.547C1155.34 864.433 1177.35 842.424 1204.41 842.424C1229.04 842.424 1246 860.799 1246 889.673V893.913H1189.27C1190.28 919.152 1199.77 933.488 1215.52 933.488Z" fill="white"/>
<path d="M560.376 1164.7C560.376 1128.35 479.61 1123.51 479.61 1078.28C479.61 1054.45 501.619 1039.11 532.512 1039.11C560.174 1039.11 580.77 1051.42 587.837 1071.21C599.144 1103.32 560.376 1112 552.3 1071.01C550.684 1062.33 548.665 1043.35 530.291 1043.35C518.984 1043.35 510.705 1050.42 510.705 1062.53C510.705 1100.29 591.471 1104.93 591.471 1149.76C591.471 1173.79 568.049 1189.54 533.521 1189.54C506.061 1189.54 486.879 1179.84 479.61 1159.05C467.697 1125.33 506.465 1116.64 514.541 1157.43C516.359 1166.31 518.176 1185.29 537.964 1185.29C550.482 1185.29 560.376 1177.62 560.376 1164.7ZM715.744 1115.03V1165.1C715.744 1172.17 718.773 1180.45 723.215 1185.7L726.243 1189.54H671.121L674.351 1185.7C678.793 1180.45 681.822 1172.17 681.822 1165.1V1125.73C681.822 1105.94 676.168 1095.85 665.063 1095.85C651.535 1095.85 641.439 1111.8 641.439 1135.42V1165.1C641.439 1172.17 644.468 1180.45 648.91 1185.7L652.14 1189.54H597.018L600.248 1185.7C604.69 1180.45 607.517 1172.17 607.517 1165.1V1065.56C607.517 1058.49 604.69 1050.21 600.248 1044.96L597.018 1041.13H641.439V1110.79C648.506 1092.41 663.852 1081.51 683.034 1081.51C704.84 1081.51 715.744 1095.44 715.744 1115.03ZM764.874 1136.63C764.874 1167.12 774.566 1187.52 791.527 1187.52C808.286 1187.52 818.18 1167.12 818.18 1136.63C818.18 1105.94 808.286 1085.75 791.527 1085.75C774.566 1085.75 764.874 1105.94 764.874 1136.63ZM730.952 1136.63C730.952 1103.52 752.961 1081.51 791.527 1081.51C829.891 1081.51 852.101 1103.52 852.101 1136.63C852.101 1169.55 829.891 1191.55 791.527 1191.55C752.961 1191.55 730.952 1169.55 730.952 1136.63ZM914.249 1181.26C925.152 1181.26 932.825 1159.85 932.825 1130.17C932.825 1102.91 926.162 1089.99 917.883 1089.99C910.211 1089.99 901.124 1101.7 901.124 1126.74V1143.7C901.124 1157.83 902.74 1181.26 914.249 1181.26ZM908.595 1228.1L911.826 1231.94H856.703L859.934 1228.1C864.376 1222.85 867.203 1214.57 867.203 1207.51V1107.96C867.203 1100.89 864.376 1092.62 859.934 1087.37L856.703 1083.53H901.124V1100.49C906.172 1087.97 915.46 1081.51 927.979 1081.51C950.594 1081.51 966.747 1103.52 966.747 1135.42C966.747 1168.94 948.978 1191.55 924.95 1191.55C911.826 1191.55 904.961 1184.89 901.124 1175.8V1207.51C901.124 1214.57 904.153 1222.85 908.595 1228.1ZM1031.38 1181.26C1042.28 1181.26 1049.95 1159.85 1049.95 1130.17C1049.95 1102.91 1043.29 1089.99 1035.01 1089.99C1027.34 1089.99 1018.25 1101.7 1018.25 1126.74V1143.7C1018.25 1157.83 1019.87 1181.26 1031.38 1181.26ZM1025.72 1228.1L1028.95 1231.94H973.83L977.06 1228.1C981.502 1222.85 984.329 1214.57 984.329 1207.51V1107.96C984.329 1100.89 981.502 1092.62 977.06 1087.37L973.83 1083.53H1018.25V1100.49C1023.3 1087.97 1032.59 1081.51 1045.11 1081.51C1067.72 1081.51 1083.87 1103.52 1083.87 1135.42C1083.87 1168.94 1066.11 1191.55 1042.08 1191.55C1028.95 1191.55 1022.09 1184.89 1018.25 1175.8V1207.51C1018.25 1214.57 1021.28 1222.85 1025.72 1228.1ZM1141.29 1185.7L1144.52 1189.54H1089.4L1092.63 1185.7C1097.07 1180.45 1099.9 1172.17 1099.9 1165.1V1107.96C1099.9 1100.89 1097.07 1092.62 1092.63 1087.37L1089.4 1083.53H1133.82V1165.1C1133.82 1172.17 1136.85 1180.45 1141.29 1185.7ZM1094.04 1059.5C1094.04 1047.18 1102.32 1039.11 1116.66 1039.11C1131.19 1039.11 1139.47 1047.18 1139.47 1059.5C1139.47 1071.82 1131.19 1080.1 1116.66 1080.1C1102.32 1080.1 1094.04 1071.82 1094.04 1059.5ZM1268.27 1115.03V1165.1C1268.27 1172.17 1271.29 1180.45 1275.74 1185.7L1278.76 1189.54H1223.64L1226.87 1185.7C1231.31 1180.45 1234.34 1172.17 1234.34 1165.1V1125.73C1234.34 1105.94 1228.69 1095.85 1217.58 1095.85C1204.06 1095.85 1193.96 1111.8 1193.96 1135.42V1165.1C1193.96 1172.17 1196.99 1180.45 1201.43 1185.7L1204.66 1189.54H1149.54L1152.77 1185.7C1157.21 1180.45 1160.04 1172.17 1160.04 1165.1V1107.96C1160.04 1100.89 1157.21 1092.62 1152.77 1087.37L1149.54 1083.53H1193.96V1110.79C1201.03 1092.41 1216.37 1081.51 1235.55 1081.51C1257.36 1081.51 1268.27 1095.44 1268.27 1115.03ZM1314.74 1197.01C1315.15 1197.81 1315.35 1198.82 1315.55 1199.83C1317.77 1208.52 1327.87 1227.7 1346.24 1227.7C1357.75 1227.7 1367.85 1220.02 1367.85 1209.32C1367.85 1190.54 1337.76 1198.02 1314.74 1197.01ZM1318.38 1121.09C1318.38 1141.88 1327.66 1157.83 1340.79 1157.83C1353.91 1157.83 1363.2 1142.29 1363.2 1121.29C1363.2 1099.68 1353.51 1085.75 1340.59 1085.75C1327.66 1085.75 1318.38 1100.09 1318.38 1121.09ZM1284.45 1120.88C1284.45 1097.46 1306.87 1081.51 1339.98 1081.51C1364.62 1081.51 1369.86 1077.88 1369.86 1071.62C1369.86 1066.97 1366.84 1065.36 1362.39 1064.15C1342.81 1059.91 1353.11 1041.53 1371.88 1046.98C1381.17 1049.81 1386.62 1056.88 1386.62 1065.16C1386.62 1076.06 1377.13 1081.91 1362.39 1084.14C1383.19 1089.59 1397.12 1103.12 1397.12 1121.09C1397.12 1144.51 1373.9 1162.07 1340.59 1162.07C1340.39 1162.07 1339.98 1162.07 1339.78 1162.07C1327.06 1162.07 1320.4 1164.09 1320.4 1167.32C1320.4 1178.63 1398.94 1151.58 1398.94 1193.37C1398.94 1216.19 1375.32 1231.94 1342.2 1231.94C1315.75 1231.94 1296.57 1222.25 1290.71 1207.51C1287.89 1199.63 1289.91 1193.98 1294.15 1190.75C1291.32 1187.92 1289.3 1183.88 1289.3 1177.82C1289.3 1164.5 1298.39 1159.85 1316.56 1158.44C1296.77 1151.98 1284.45 1138.05 1284.45 1120.88Z" fill="white"/>
<path d="M1041.43 551.533C1071.69 551.533 1098.32 534.983 1112.04 509.956L1256.5 247.976C1271.43 221.334 1252.06 188.233 1221.39 188.233H624.189L586.259 107.5H454.309V188.233H535.012L680.278 494.616L625.803 593.111C596.347 647.202 635.084 713 696.419 713H1180.64V632.267H696.419L740.806 551.533H1041.43ZM662.523 268.967H1152.8L1041.43 470.8H758.157L662.523 268.967ZM647.556 755.775C593.555 755.775 549.862 799.975 549.862 853.997C549.862 908.019 593.555 952.218 647.556 952.218C701.558 952.218 745.742 908.019 745.742 853.997C745.742 799.975 701.558 755.775 647.556 755.775Z" fill="white"/>
<path d="M505.631 1409.96C489.791 1409.96 479.135 1399.3 479.135 1383.08V1350.06C479.135 1346.7 477.791 1342.76 475.679 1340.26L474.143 1338.44H500.351L498.815 1340.26C496.703 1342.76 495.263 1346.7 495.263 1350.06V1385C495.263 1398.44 502.751 1406.02 511.775 1406.02C520.511 1406.02 529.151 1398.63 529.151 1384.04V1350.06C529.151 1346.7 527.807 1342.76 525.695 1340.26L524.159 1338.44H536.255L534.719 1340.26C532.607 1342.76 531.167 1346.7 531.167 1350.06V1383.08C531.167 1399.11 521.471 1409.96 505.631 1409.96ZM590.599 1353.22L579.271 1371.08L592.999 1394.22C594.727 1397 597.415 1400.46 600.007 1402.66L606.823 1409H576.007L576.487 1404.49C576.871 1401.13 576.007 1397 574.279 1394.22L564.871 1378.38L554.887 1394.22C553.159 1397 552.007 1401.13 551.911 1404.49L551.815 1409H536.263L545.095 1402.28C547.783 1400.26 550.759 1397 552.487 1394.22L563.815 1376.36L550.087 1353.22C548.359 1350.44 545.671 1346.98 543.079 1344.78L536.263 1338.44H567.079L566.599 1342.95C566.215 1346.31 567.079 1350.44 568.807 1353.22L578.215 1369.06L588.199 1353.22C589.927 1350.44 591.079 1346.31 591.175 1342.95L591.271 1338.44H606.823L597.991 1345.16C595.303 1347.18 592.327 1350.44 590.599 1353.22ZM663.375 1375.78H669.135C679.695 1375.78 686.607 1368.78 686.607 1358.31C686.607 1347.56 679.695 1340.46 669.135 1340.46H663.375V1375.78ZM666.927 1407.18L668.463 1409H642.255L643.791 1407.18C645.903 1404.68 647.247 1400.74 647.247 1397.38V1350.06C647.247 1346.7 645.903 1342.76 643.791 1340.26L642.255 1338.44H683.247C694.959 1338.44 702.735 1346.22 702.735 1357.93C702.735 1370.02 694.959 1377.8 683.247 1377.8H683.151C686.991 1378.86 690.351 1381.64 691.887 1385.58L694.959 1393.74C696.207 1396.9 698.607 1400.46 701.007 1402.76L707.727 1409H689.199C685.935 1409 682.863 1406.89 681.519 1403.82L670.671 1377.8H663.375V1397.38C663.375 1400.74 664.815 1404.68 666.927 1407.18ZM722.334 1379.91V1380.1H734.622C734.91 1365.7 732.51 1359.66 728.958 1359.66C724.83 1359.66 722.334 1367.82 722.334 1379.91ZM734.814 1400.94C737.79 1400.94 743.934 1399.98 751.326 1393.26C747.87 1401.03 740.958 1409.96 729.246 1409.96C716.67 1409.96 706.206 1399.5 706.206 1383.85C706.206 1368.1 716.67 1357.64 729.534 1357.64C741.246 1357.64 749.31 1366.38 749.31 1380.1V1382.12H722.334C722.814 1394.12 727.326 1400.94 734.814 1400.94ZM782.124 1402.76C782.124 1391.05 756.3 1386.63 756.3 1371.27C756.3 1362.92 763.884 1357.64 775.308 1357.64C787.02 1357.64 794.316 1363.02 795.66 1370.12C797.676 1380.39 785.676 1385.48 781.932 1368.01C781.356 1365.22 779.82 1359.66 775.692 1359.66C772.908 1359.66 771.084 1362.25 771.084 1365.22C771.084 1376.55 796.908 1382.02 796.908 1396.62C796.908 1404.78 788.94 1409.96 776.652 1409.96C764.172 1409.96 756.876 1404.58 755.436 1397.48C753.42 1387.21 765.42 1382.12 769.164 1399.59C769.74 1402.38 771.276 1408.04 776.844 1408.04C780.204 1408.04 782.124 1405.83 782.124 1402.76ZM817.584 1379.91V1380.1H829.872C830.16 1365.7 827.76 1359.66 824.208 1359.66C820.08 1359.66 817.584 1367.82 817.584 1379.91ZM830.064 1400.94C833.04 1400.94 839.184 1399.98 846.576 1393.26C843.12 1401.03 836.208 1409.96 824.496 1409.96C811.92 1409.96 801.456 1399.5 801.456 1383.85C801.456 1368.1 811.92 1357.64 824.784 1357.64C836.496 1357.64 844.56 1366.38 844.56 1380.1V1382.12H817.584C818.064 1394.12 822.576 1400.94 830.064 1400.94ZM880.926 1383.66H878.718C870.942 1383.66 865.95 1389.22 865.95 1396.71C865.95 1402.18 868.638 1406.02 872.286 1406.02C876.702 1406.02 880.926 1400.36 880.926 1388.46V1383.66ZM900.894 1407.46L902.142 1409H880.926V1400.65C878.43 1406.7 873.63 1409.96 866.142 1409.96C856.254 1409.96 849.822 1404.2 849.822 1396.81C849.822 1386.54 862.302 1381.64 873.438 1381.64H880.926V1375.88C880.926 1364.46 877.662 1359.66 873.918 1359.66C869.79 1359.66 868.254 1365.22 867.678 1368.01C863.934 1385.48 851.934 1380.39 853.95 1370.12C855.39 1363.02 862.59 1357.64 874.11 1357.64C886.59 1357.64 897.054 1364.07 897.054 1379.82V1397C897.054 1400.55 898.59 1404.78 900.894 1407.46ZM928.86 1407.18L930.396 1409H904.188L905.724 1407.18C907.836 1404.68 909.18 1400.74 909.18 1397.38V1370.22C909.18 1366.86 907.836 1362.92 905.724 1360.42L904.188 1358.6H925.308V1369.45C927.804 1362.06 932.412 1357.64 938.748 1357.64C945.084 1357.64 951.036 1362.15 952.38 1369.16C954.396 1380.39 942.396 1385.48 938.94 1369.54C938.076 1365.22 936.54 1362.63 933.564 1362.63C928.572 1362.63 925.308 1369.74 925.308 1383.85V1397.38C925.308 1400.74 926.748 1404.68 928.86 1407.18ZM984.379 1400.94C987.259 1400.94 993.403 1399.98 1000.79 1393.26C997.339 1401.03 990.427 1409.96 978.715 1409.96C966.139 1409.96 955.675 1399.5 955.675 1383.85C955.675 1368.1 966.139 1357.64 980.059 1357.64C990.139 1357.64 997.435 1363.02 998.779 1370.12C1000.79 1380.39 988.795 1385.48 985.147 1368.01C984.475 1365.22 983.035 1359.66 979.483 1359.66C975.163 1359.66 971.803 1368.49 971.803 1379.91C971.803 1393.26 976.411 1400.94 984.379 1400.94ZM1058.41 1373.58V1397.38C1058.41 1400.74 1059.85 1404.68 1061.96 1407.18L1063.4 1409H1037.19L1038.73 1407.18C1040.84 1404.68 1042.28 1400.74 1042.28 1397.38V1378.66C1042.28 1369.26 1039.59 1364.46 1034.31 1364.46C1027.88 1364.46 1023.08 1372.04 1023.08 1383.27V1397.38C1023.08 1400.74 1024.52 1404.68 1026.63 1407.18L1028.17 1409H1001.96L1003.5 1407.18C1005.61 1404.68 1006.95 1400.74 1006.95 1397.38V1350.06C1006.95 1346.7 1005.61 1342.76 1003.5 1340.26L1001.96 1338.44H1023.08V1371.56C1026.44 1362.82 1033.74 1357.64 1042.86 1357.64C1053.23 1357.64 1058.41 1364.26 1058.41 1373.58ZM1111.93 1423.88L1112.02 1424.07H1103L1103.09 1423.88C1105.88 1418.22 1105.97 1409.77 1105.97 1403.43V1359.08C1105.97 1352.74 1105.4 1344.58 1103.09 1338.63L1103 1338.44H1112.02L1111.93 1338.63C1109.14 1344.39 1109.05 1352.74 1109.05 1359.08V1403.43C1109.05 1409.77 1109.14 1418.22 1111.93 1423.88ZM1182.97 1409.96C1167.13 1409.96 1156.48 1399.3 1156.48 1383.08V1350.06C1156.48 1346.7 1155.13 1342.76 1153.02 1340.26L1151.49 1338.44H1177.69L1176.16 1340.26C1174.05 1342.76 1172.61 1346.7 1172.61 1350.06V1385C1172.61 1398.44 1180.09 1406.02 1189.12 1406.02C1197.85 1406.02 1206.49 1398.63 1206.49 1384.04V1350.06C1206.49 1346.7 1205.15 1342.76 1203.04 1340.26L1201.5 1338.44H1213.6L1212.06 1340.26C1209.95 1342.76 1208.51 1346.7 1208.51 1350.06V1383.08C1208.51 1399.11 1198.81 1409.96 1182.97 1409.96ZM1267.94 1353.22L1256.62 1371.08L1270.34 1394.22C1272.07 1397 1274.76 1400.46 1277.35 1402.66L1284.17 1409H1253.35L1253.83 1404.49C1254.22 1401.13 1253.35 1397 1251.62 1394.22L1242.22 1378.38L1232.23 1394.22C1230.5 1397 1229.35 1401.13 1229.26 1404.49L1229.16 1409H1213.61L1222.44 1402.28C1225.13 1400.26 1228.1 1397 1229.83 1394.22L1241.16 1376.36L1227.43 1353.22C1225.7 1350.44 1223.02 1346.98 1220.42 1344.78L1213.61 1338.44H1244.42L1243.94 1342.95C1243.56 1346.31 1244.42 1350.44 1246.15 1353.22L1255.56 1369.06L1265.54 1353.22C1267.27 1350.44 1268.42 1346.31 1268.52 1342.95L1268.61 1338.44H1284.17L1275.34 1345.16C1272.65 1347.18 1269.67 1350.44 1267.94 1353.22ZM1285.39 1411.5L1305.65 1335.94H1307.66L1287.41 1411.5H1285.39ZM1341.97 1409.96C1326.13 1409.96 1315.48 1399.3 1315.48 1383.08V1350.06C1315.48 1346.7 1314.13 1342.76 1312.02 1340.26L1310.49 1338.44H1336.69L1335.16 1340.26C1333.05 1342.76 1331.61 1346.7 1331.61 1350.06V1385C1331.61 1398.44 1339.09 1406.02 1348.12 1406.02C1356.85 1406.02 1365.49 1398.63 1365.49 1384.04V1350.06C1365.49 1346.7 1364.15 1342.76 1362.04 1340.26L1360.5 1338.44H1372.6L1371.06 1340.26C1368.95 1342.76 1367.51 1346.7 1367.51 1350.06V1383.08C1367.51 1399.11 1357.81 1409.96 1341.97 1409.96ZM1399.58 1407.18L1401.12 1409H1374.91L1376.45 1407.18C1378.56 1404.68 1379.9 1400.74 1379.9 1397.38V1350.06C1379.9 1346.7 1378.56 1342.76 1376.45 1340.26L1374.91 1338.44H1401.12L1399.58 1340.26C1397.47 1342.76 1396.03 1346.7 1396.03 1350.06V1397.38C1396.03 1400.74 1397.47 1404.68 1399.58 1407.18Z" fill="white"/>
</svg>
